# xmcd
#
# Track frame offsets: 
#        150
#        16230
#        33172
#        49182
#        66150
#        82605
#        100527
#        114597
#        132060
#        148280
#        165727
#        180597
#
# Disc length: 2633 seconds
#
# Revision: 0
# Processed by: cddbd v1.5.2PL0 Copyright (c) Steve Scherf et al.
# Submitted via: ExactAudioCopyFreeDBPlugin 1.0
#
DISCID=910a470c
DTITLE=Sugababes - Change
DYEAR=2007
DGENRE=R&B
TTITLE0=About You Now
TTITLE1=Never Gonna Dance Again
TTITLE2=Denial
TTITLE3=My Love Is Pink
TTITLE4=Change
TTITLE5=Back When
TTITLE6=Surprise
TTITLE7=Back Down
TTITLE8=Mended By You
TTITLE9=3 Spoons Of Suga
TTITLE10=Open The Door
TTITLE11=Undignified
EXTD=
EXTT0=
EXTT1=
EXTT2=
EXTT3=
EXTT4=
EXTT5=
EXTT6=
EXTT7=
EXTT8=
EXTT9=
EXTT10=
EXTT11=
PLAYORDER=
